<svg preserveAspectRatio="none" width="100%" height="100%" overflow="visible" style="display: block;" viewBox="0 0 45 37" fill="none" xmlns="http://www.w3.org/2000/svg">
<g id="Frame 150">
<rect width="45" height="37" rx="18.5" fill="var(--fill-0, #3B3B3B)"/>
<path id="&#244;&#128;&#174;&#180;" d="M18.0156 17.3818C15.8125 17.3818 14 15.5693 14 13.3584C14 11.1553 15.8125 9.34277 18.0156 9.34277C20.2266 9.34277 22.0391 11.1553 22.0391 13.3584C22.0391 15.5537 20.2031 17.3818 18.0156 17.3818ZM16.1562 14.0225H18.0625C18.3672 14.0225 18.6094 13.7881 18.6094 13.4834V11.1006C18.6094 10.8037 18.3672 10.5693 18.0625 10.5693C17.7578 10.5693 17.5234 10.8037 17.5234 11.1006V12.9443H16.1562C15.8594 12.9443 15.6094 13.1787 15.6094 13.4834C15.6094 13.7803 15.8516 14.0225 16.1562 14.0225ZM30.1797 19.5146C30.1797 20.0303 29.8125 20.3428 29.4141 20.3428C28.9922 20.3428 28.5938 20.0381 28.5938 19.5146C28.5938 16.2646 26.2266 13.6006 23.125 13.124C23.1172 12.5693 22.9844 11.9834 22.7734 11.4756C26.8828 11.8193 30.1797 15.3193 30.1797 19.5146ZM14.0391 19.5146C14.0391 18.6475 14.1797 17.8115 14.4453 17.0303C14.8516 17.4209 15.3281 17.749 15.8516 17.9678C15.7109 18.4521 15.6328 18.9756 15.6328 19.5146C15.6328 21.9521 16.9688 24.0693 18.8594 25.1318C19.8828 25.7256 19.0938 27.0537 18.1094 26.499C15.7734 25.2178 14.0391 22.5459 14.0391 19.5146ZM25.6719 27.6006C25.2969 27.7568 24.8594 27.5771 24.7109 27.2178L23.6016 24.4521L22.4844 25.5928C22.2578 25.8193 21.8672 25.7021 21.875 25.3584L21.9531 19.21C21.9609 18.8896 22.2891 18.7568 22.5156 18.9834L26.75 23.3193C26.9844 23.5615 26.8281 23.8896 26.4922 23.8975L24.8906 23.9443L26.0625 26.6631C26.2188 27.0303 26.0469 27.4521 25.6719 27.6006Z" fill="var(--fill-0, #828282)"/>
</g>
</svg>
