<svg preserveAspectRatio="none" width="100%" height="100%" overflow="visible" style="display: block;" viewBox="0 0 45 37" fill="none" xmlns="http://www.w3.org/2000/svg">
<g id="Frame 151">
<rect width="45" height="37" rx="18.5" fill="var(--fill-0, #3B3B3B)"/>
<path id="&#244;&#130;&#183;&#171;" d="M22.8403 25.9304C21.207 25.9304 19.7202 25.6375 18.4458 25.0808C17.6621 25.6155 16.6147 25.9304 15.6406 25.9304C14.8716 25.9304 14.564 25.1687 15.1279 24.678C15.5015 24.3411 15.626 24.0261 15.626 23.5867C15.626 23.1985 15.4575 22.803 15.1133 22.2756C14.4688 21.2942 14 20.0857 14 18.4963C14 14.175 17.75 11.0696 22.8403 11.0696C27.9233 11.0696 31.6807 14.175 31.6807 18.4963C31.6807 22.803 27.938 25.9304 22.8403 25.9304ZM22.8403 24.3264C27.103 24.3264 30.0767 21.8582 30.0767 18.4963C30.0767 15.1345 27.103 12.6736 22.8403 12.6736C18.5776 12.6736 15.604 15.1345 15.604 18.4963C15.604 19.6023 15.9189 20.613 16.4902 21.4333C16.9517 22.1365 17.2007 22.7517 17.2007 23.3083C17.2007 23.5793 17.1274 23.7917 17.0176 24.0115C17.3105 23.9382 17.5815 23.8137 17.8086 23.6746C18.27 23.4255 18.6655 23.3816 19.1782 23.6086C20.2256 24.0701 21.4634 24.3264 22.8403 24.3264ZM22.6646 19.9172C22.1665 19.9172 21.8955 19.6902 21.8955 19.2507V19.1775C21.8955 18.5549 22.2617 18.1887 22.7817 17.8298C23.3823 17.4124 23.6899 17.1926 23.6899 16.7532C23.6899 16.3064 23.3237 15.9768 22.7817 15.9768C22.3789 15.9768 22.0566 16.1672 21.8149 16.5408L21.7124 16.6799C21.5659 16.8777 21.3682 16.9949 21.0825 16.9949C20.7456 16.9949 20.46 16.7385 20.46 16.3723C20.46 16.2332 20.4819 16.1013 20.5332 15.9695C20.7822 15.281 21.6465 14.7244 22.8989 14.7244C24.2393 14.7244 25.3525 15.4495 25.3525 16.6653C25.3525 17.5002 24.9131 17.9177 24.1807 18.3938C23.7266 18.6868 23.4556 18.9285 23.4189 19.2874C23.4189 19.3167 23.4116 19.3459 23.4116 19.3752C23.375 19.6829 23.0967 19.9172 22.6646 19.9172ZM22.6572 22.2024C22.1592 22.2024 21.749 21.8582 21.749 21.3674C21.749 20.884 22.1519 20.5325 22.6572 20.5325C23.1699 20.5325 23.5654 20.884 23.5654 21.3674C23.5654 21.8655 23.1626 22.2024 22.6572 22.2024Z" fill="var(--fill-0, #828282)"/>
</g>
</svg>
