<svg preserveAspectRatio="none" width="100%" height="100%" overflow="visible" style="display: block;" viewBox="0 0 45 37" fill="none" xmlns="http://www.w3.org/2000/svg">
<g id="Frame 23">
<rect width="45" height="37" rx="18.5" fill="var(--fill-0, #3B3B3B)"/>
<path id="&#244;&#128;&#147;&#149;" d="M16.7227 26.2488C14.9297 26.2488 14 25.3274 14 23.551V13.449C14 11.6726 14.9297 10.7512 16.7227 10.7512H28.1445C29.9375 10.7512 30.8672 11.6726 30.8672 13.449V23.551C30.8672 25.3191 29.9375 26.2488 28.1445 26.2488H16.7227ZM16.6978 24.6218H28.1528C28.8501 24.6218 29.2402 24.2566 29.2402 23.5344V15.8645C29.2402 15.134 28.8501 14.7771 28.1528 14.7771H16.6978C16.0088 14.7771 15.627 15.134 15.627 15.8645V23.5344C15.627 24.2566 16.0088 24.6218 16.6978 24.6218ZM18.1255 17.7654C17.8184 17.7654 17.5942 17.533 17.5942 17.2341C17.5942 16.9436 17.8184 16.7195 18.1255 16.7195H26.75C27.0571 16.7195 27.2812 16.9436 27.2812 17.2341C27.2812 17.533 27.0571 17.7654 26.75 17.7654H18.1255ZM18.1255 20.2224C17.8184 20.2224 17.5942 19.9983 17.5942 19.7078C17.5942 19.4089 17.8184 19.1765 18.1255 19.1765H26.75C27.0571 19.1765 27.2812 19.4089 27.2812 19.7078C27.2812 19.9983 27.0571 20.2224 26.75 20.2224H18.1255ZM18.1255 22.6794C17.8184 22.6794 17.5942 22.4553 17.5942 22.1648C17.5942 21.866 17.8184 21.6252 18.1255 21.6252H23.5708C23.8779 21.6252 24.1021 21.866 24.1021 22.1648C24.1021 22.4553 23.8779 22.6794 23.5708 22.6794H18.1255Z" fill="var(--fill-0, #828282)"/>
</g>
</svg>
