<svg preserveAspectRatio="none" width="100%" height="100%" overflow="visible" style="display: block;" viewBox="0 0 65.5444 37.5293" fill="none" xmlns="http://www.w3.org/2000/svg">
<path id="&#244;&#129;&#131;&#145;" d="M1.77979 37.002C0.791016 37.002 0 36.2329 0 35.2441C0 15.8423 14.6997 0 32.7612 0C50.8008 0 65.5444 15.8423 65.5444 35.2441C65.5444 36.2329 64.7314 37.002 63.7427 37.002C62.7759 37.002 62.0068 36.2329 62.0068 35.2441C62.0068 17.7759 48.8672 3.5376 32.7612 3.5376C16.6333 3.5376 3.5376 17.7759 3.5376 35.2441C3.5376 36.2329 2.74658 37.002 1.77979 37.002ZM32.8052 22.2363C29.1577 22.2363 26.0156 18.9844 26.0156 14.8096C25.9937 10.6567 29.1577 7.4707 32.8052 7.4707C36.3867 7.4707 39.5947 10.5908 39.5947 14.7656C39.5947 18.9844 36.4307 22.2363 32.8052 22.2363ZM11.9531 37.002C10.9644 37.002 10.1953 36.2329 10.1953 35.2661C10.1953 25.9937 15.3369 17.6221 23.1372 13.7549C22.9395 15.0952 23.0273 16.3257 23.3789 17.644C17.5122 21.2695 13.7769 27.9053 13.7769 35.2661C13.7769 36.2329 12.9199 37.002 11.9531 37.002ZM53.5913 37.002C52.6245 37.002 51.7896 36.2329 51.7896 35.2661C51.7896 27.9272 48.0542 21.3135 42.2314 17.688C42.561 16.3916 42.6489 15.0732 42.5171 13.7988C50.2734 17.71 55.3711 26.0156 55.3711 35.2661C55.3711 36.2329 54.5581 37.002 53.5913 37.002ZM21.709 37.5293C19.8413 37.5293 18.7207 36.6504 18.7207 35.1782C18.7207 30.7837 24.126 24.8291 32.8052 24.8291C41.4404 24.8291 46.8677 30.7837 46.8677 35.1782C46.8677 36.6504 45.7031 37.5293 43.8574 37.5293H21.709Z" fill="var(--fill-0, #828282)"/>
</svg>
