<svg width="9" height="10" viewBox="0 0 9 10" fill="none" xmlns="http://www.w3.org/2000/svg" aria-hidden="true">
  <path
    fill="#FF4646"
    fill-rule="evenodd"
    d="M0.488942 9.80233C0.177404 9.80233 0 9.58946 0 9.21439V2.39736C0 2.05778 0.116827 1.8145 0.372115 1.64217L2.62212 0.141916C2.75625 0.0506842 2.91202 0 3.06779 0C3.21923 0 3.37067 0.0506842 3.50481 0.141916L5.85433 1.8297L8.1476 0.334516C8.29038 0.243284 8.40288 0.202737 8.51106 0.202737C8.8226 0.202737 9 0.410542 9 0.785606V7.61277C9 7.95236 8.88317 8.19564 8.62356 8.3629L6.36058 9.86822C6.23077 9.95438 6.07933 10 5.92788 10C5.76779 10 5.59904 9.94932 5.44327 9.84795L3.05048 8.27674L0.848077 9.66548C0.709615 9.75672 0.597115 9.80233 0.488942 9.80233Z"
  />
</svg>
