<svg preserveAspectRatio="none" width="100%" height="100%" overflow="visible" style="display: block;" viewBox="0 0 9 10" fill="none" xmlns="http://www.w3.org/2000/svg">
<g id="Vector">
<path d="M0.488942 9.80233C0.177404 9.80233 0 9.58946 0 9.21439V2.39736C0 2.05778 0.116827 1.8145 0.372115 1.64217L2.62212 0.141916C2.75625 0.0506842 2.91202 0 3.06779 0C3.21923 0 3.37067 0.0506842 3.50481 0.141916L5.85433 1.8297L8.1476 0.334516C8.29038 0.243284 8.40288 0.202737 8.51106 0.202737C8.8226 0.202737 9 0.410542 9 0.785606V7.61277C9 7.95236 8.88317 8.19564 8.62356 8.3629L6.36058 9.86822C6.23077 9.95438 6.07933 10 5.92788 10C5.76779 10 5.59904 9.94932 5.44327 9.84795L3.05048 8.27674L0.848077 9.66548C0.709615 9.75672 0.597115 9.80233 0.488942 9.80233ZM2.76923 7.47086V0.998479C2.71731 1.03396 2.66971 1.06437 2.61346 1.09985L0.839423 2.31627C0.735577 2.38723 0.696635 2.47339 0.696635 2.59503V8.67207C0.696635 8.72276 0.718269 8.75317 0.752885 8.75317C0.774519 8.75317 0.796154 8.73796 0.817788 8.72783L2.76923 7.47086ZM3.46587 7.55195L5.34375 8.79372C5.40865 8.83426 5.47356 8.86974 5.53413 8.91029V2.57476L3.60433 1.19615C3.56106 1.16574 3.50913 1.13533 3.46587 1.10492V7.55195ZM6.23077 9.00152C6.29567 8.96604 6.36058 8.92043 6.42548 8.87481L8.16058 7.69387C8.2601 7.62291 8.30337 7.53675 8.30337 7.41004V1.333C8.30337 1.28231 8.28173 1.2519 8.24279 1.2519C8.22548 1.2519 8.20385 1.26204 8.18221 1.27724L6.23077 2.52408V9.00152Z" fill="var(--fill-0, #FF4646)"/>
<path d="M2.76923 7.47086V0.998479C2.71731 1.03396 2.66971 1.06437 2.61346 1.09985L0.839423 2.31627C0.735577 2.38723 0.696635 2.47339 0.696635 2.59503V8.67207C0.696635 8.72276 0.718269 8.75317 0.752885 8.75317C0.774519 8.75317 0.796154 8.73796 0.817788 8.72783L2.76923 7.47086Z" fill="var(--fill-0, #FF4646)"/>
<path d="M3.46587 7.55195L5.34375 8.79372C5.40865 8.83426 5.47356 8.86974 5.53413 8.91029V2.57476L3.60433 1.19615C3.56106 1.16574 3.50913 1.13533 3.46587 1.10492V7.55195Z" fill="var(--fill-0, #FF4646)"/>
<path d="M6.23077 9.00152C6.29567 8.96604 6.36058 8.92043 6.42548 8.87481L8.16058 7.69387C8.2601 7.62291 8.30337 7.53675 8.30337 7.41004V1.333C8.30337 1.28231 8.28173 1.2519 8.24279 1.2519C8.22548 1.2519 8.20385 1.26204 8.18221 1.27724L6.23077 2.52408V9.00152Z" fill="var(--fill-0, #FF4646)"/>
</g>
</svg>
