<svg preserveAspectRatio="none" width="100%" height="100%" overflow="visible" style="display: block;" viewBox="0 0 13.8208 15.1318" fill="none" xmlns="http://www.w3.org/2000/svg">
<path id="&#244;&#128;&#139;&#153;" d="M0 11.5942C0 10.8618 0.739746 10.2026 1.37695 9.55078C1.86035 9.04541 1.99219 8.00537 2.05078 7.16309C2.10205 4.27734 2.84912 2.41699 4.79736 1.71387C5.03906 0.754395 5.83008 0 6.90674 0C7.99072 0 8.77441 0.754395 9.02344 1.71387C10.9717 2.41699 11.7188 4.27734 11.77 7.16309C11.8286 8.00537 11.9604 9.04541 12.4438 9.55078C13.0737 10.2026 13.8208 10.8618 13.8208 11.5942C13.8208 12.1289 13.4033 12.4805 12.7148 12.4805H9.62402C9.56543 13.9014 8.45947 15.1318 6.90674 15.1318C5.36133 15.1318 4.25537 13.894 4.19678 12.4805H1.10596C0.410156 12.4805 0 12.1289 0 11.5942ZM1.4209 11.3745H12.3926V11.2866C12.2607 11.0742 11.8286 10.6421 11.4404 10.2173C10.9204 9.63135 10.6714 8.68652 10.6055 7.2583C10.5469 4.05762 9.59473 3.03955 8.33496 2.69531C8.15186 2.65137 8.05664 2.56348 8.04932 2.37305C8.02002 1.61133 7.58789 1.07666 6.90674 1.07666C6.23291 1.07666 5.79346 1.61133 5.77148 2.37305C5.76416 2.56348 5.66162 2.65137 5.47852 2.69531C4.22607 3.03955 3.27393 4.05762 3.21533 7.2583C3.14941 8.68652 2.90039 9.63135 2.37305 10.2173C1.99219 10.6421 1.55273 11.0742 1.4209 11.2866V11.3745ZM5.33936 12.4805C5.39062 13.4766 6.02783 14.0991 6.90674 14.0991C7.79297 14.0991 8.42285 13.4766 8.48145 12.4805H5.33936Z" fill="var(--fill-0, #828282)"/>
</svg>
