<svg preserveAspectRatio="none" width="100%" height="100%" overflow="visible" style="display: block;" viewBox="0 0 12.7954 13.5645" fill="none" xmlns="http://www.w3.org/2000/svg">
<path id="&#244;&#128;&#137;&#169;" d="M6.40137 6.78223C4.6582 6.78223 3.2373 5.24414 3.2373 3.36182C3.2373 1.50146 4.66553 0 6.40137 0C8.15186 0 9.56543 1.47217 9.56543 3.34717C9.56543 5.23682 8.14453 6.78223 6.40137 6.78223ZM6.40137 5.67627C7.47803 5.67627 8.38623 4.64355 8.38623 3.34717C8.38623 2.06543 7.49268 1.10596 6.40137 1.10596C5.31738 1.10596 4.4165 2.0874 4.4165 3.36182C4.4165 4.6582 5.33203 5.67627 6.40137 5.67627ZM1.79443 13.5645C0.578613 13.5645 0 13.1982 0 12.3926C0 10.4736 2.42432 7.69775 6.40137 7.69775C10.3711 7.69775 12.7954 10.4736 12.7954 12.3926C12.7954 13.1982 12.2168 13.5645 11.001 13.5645H1.79443ZM1.4502 12.4585H11.3525C11.543 12.4585 11.6162 12.4072 11.6162 12.2534C11.6162 11.0449 9.75586 8.80371 6.40137 8.80371C3.03955 8.80371 1.1792 11.0449 1.1792 12.2534C1.1792 12.4072 1.25977 12.4585 1.4502 12.4585Z" fill="var(--fill-0, white)"/>
</svg>
