<svg preserveAspectRatio="none" width="100%" height="100%" overflow="visible" style="display: block;" viewBox="0 0 14.5407 14.8853" fill="none" xmlns="http://www.w3.org/2000/svg">
<path id="&#244;&#128;&#145;&#171;" d="M9.50537 0.991251C10.7944 -0.297811 12.4131 -0.327108 13.6436 0.888712C14.8813 2.11918 14.8301 3.75248 13.541 5.0269L9.50537 0.991251ZM7.46192 14.8853C7.08838 14.8853 6.79541 14.5923 6.79541 14.2261V10.0367L2.99414 13.5523C2.70117 13.8306 2.27637 13.8746 1.94678 13.5303L0.738283 14.4751C0.606448 14.5777 0.43799 14.5704 0.313479 14.4458L0.101076 14.2261C-0.0307595 14.0943 -0.0234353 13.9258 0.0644553 13.8086L1.00196 12.6001C0.657717 12.2559 0.701662 11.8384 0.979983 11.5381L7.79151 4.20658C7.67432 3.3643 7.99658 2.50004 8.77295 1.731L12.8013 5.76664C12.0322 6.53568 11.1533 6.87992 10.3184 6.77006L8.12842 8.79154V14.2261C8.12842 14.5923 7.83545 14.8853 7.46192 14.8853ZM1.73438 12.1387L2.40821 12.8125L9.21973 6.3599C9.0293 6.24272 8.82422 6.07426 8.64844 5.89115C8.46533 5.6934 8.31885 5.49565 8.19434 5.28324L1.73438 12.1387Z" fill="var(--fill-0, #828282)"/>
</svg>
