<svg preserveAspectRatio="none" width="100%" height="100%" overflow="visible" style="display: block;" viewBox="0 0 16 14" fill="none" xmlns="http://www.w3.org/2000/svg">
<path d="M5.5 7C7.15685 7 8.5 5.65685 8.5 4C8.5 2.34315 7.15685 1 5.5 1C3.84315 1 2.5 2.34315 2.5 4C2.5 5.65685 3.84315 7 5.5 7ZM11 7C12.3807 7 13.5 5.88071 13.5 4.5C13.5 3.11929 12.3807 2 11 2C9.61929 2 8.5 3.11929 8.5 4.5C8.5 5.88071 9.61929 7 11 7ZM0 13C0 10.7909 1.79086 9 4 9H7C9.20914 9 11 10.7909 11 13H0ZM9.5 13C9.5 11.067 10.567 9.5 12.5 9.5H12.75C14.683 9.5 16.5 11.067 16.5 13H9.5Z" fill="var(--fill-0, #828282)"/>
</svg>
