<svg preserveAspectRatio="none" width="100%" height="100%" overflow="visible" style="display: block;" viewBox="0 0 14.5972 13.4839" fill="none" xmlns="http://www.w3.org/2000/svg">
<path id="&#244;&#128;&#147;&#149;" d="M2.2998 13.4839C0.769043 13.4839 0 12.7295 0 11.2134V2.27051C0 0.754395 0.769043 0 2.2998 0H12.3047C13.8354 0 14.5972 0.761719 14.5972 2.27051V11.2134C14.5972 12.7222 13.8354 13.4839 12.3047 13.4839H2.2998ZM2.18994 12.3047H12.3999C13.0518 12.3047 13.418 11.9604 13.418 11.2793V4.37256C13.418 3.69873 13.0518 3.34717 12.3999 3.34717H2.18994C1.53809 3.34717 1.1792 3.69873 1.1792 4.37256V11.2793C1.1792 11.9604 1.53809 12.3047 2.18994 12.3047ZM3.46436 6.07178C3.19336 6.07178 3.00293 5.8667 3.00293 5.61035C3.00293 5.36133 3.19336 5.1709 3.46436 5.1709H11.1548C11.4111 5.1709 11.6089 5.36133 11.6089 5.61035C11.6089 5.8667 11.4111 6.07178 11.1548 6.07178H3.46436ZM3.46436 8.27637C3.19336 8.27637 3.00293 8.08594 3.00293 7.83691C3.00293 7.57324 3.19336 7.37549 3.46436 7.37549H11.1548C11.4111 7.37549 11.6089 7.57324 11.6089 7.83691C11.6089 8.08594 11.4111 8.27637 11.1548 8.27637H3.46436ZM3.46436 10.481C3.19336 10.481 3.00293 10.2905 3.00293 10.0415C3.00293 9.78516 3.19336 9.58008 3.46436 9.58008H8.34961C8.60596 9.58008 8.80371 9.78516 8.80371 10.0415C8.80371 10.2905 8.60596 10.481 8.34961 10.481H3.46436Z" fill="var(--fill-0, #828282)"/>
</svg>
