<svg preserveAspectRatio="none" width="100%" height="100%" overflow="visible" style="display: block;" viewBox="0 0 194 194" fill="none" xmlns="http://www.w3.org/2000/svg">
<g id="Group 56">
<path id="Ellipse 9" d="M180 96.5C180 142.616 142.616 180 96.5 180C50.3842 180 13 142.616 13 96.5C13 50.3842 50.3842 13 96.5 13C142.616 13 180 50.3842 180 96.5Z" fill="var(--fill-0, #2B2B2B)"/>
<g id="Vector">
<path d="M58.6721 144.063C55.6952 144.063 54 141.977 54 138.301V71.4942C54 68.1662 55.1163 65.7821 57.5558 64.0933L79.0558 49.3908C80.3375 48.4967 81.826 48 83.3144 48C84.7615 48 86.2087 48.4967 87.4904 49.3908L109.941 65.9311L131.855 51.2783C133.219 50.3842 134.294 49.9868 135.328 49.9868C138.305 49.9868 140 52.0233 140 55.6989V122.605C140 125.933 138.884 128.317 136.403 129.956L114.779 144.709C113.538 145.553 112.091 146 110.644 146C109.114 146 107.502 145.503 106.013 144.51L83.149 129.112L62.1038 142.722C60.7808 143.616 59.7058 144.063 58.6721 144.063ZM80.4615 121.214V57.7851C79.9654 58.1328 79.5106 58.4308 78.9731 58.7785L62.0212 70.6994C61.0288 71.3948 60.6567 72.2392 60.6567 73.4313V132.986C60.6567 133.483 60.8635 133.781 61.1942 133.781C61.401 133.781 61.6077 133.632 61.8144 133.533L80.4615 121.214ZM87.1183 122.009L105.062 134.178C105.683 134.576 106.303 134.923 106.882 135.321V73.2326L88.4413 59.7223C88.0279 59.4242 87.5317 59.1262 87.1183 58.8282V122.009ZM113.538 136.215C114.159 135.867 114.779 135.42 115.399 134.973L131.979 123.4C132.93 122.705 133.343 121.86 133.343 120.618V61.0634C133.343 60.5667 133.137 60.2686 132.764 60.2686C132.599 60.2686 132.392 60.368 132.186 60.517L113.538 72.7359V136.215Z" fill="var(--fill-0, #FF0000)" fill-opacity="0.57"/>
<path d="M80.4615 121.214V57.7851C79.9654 58.1328 79.5106 58.4308 78.9731 58.7785L62.0212 70.6994C61.0288 71.3948 60.6567 72.2392 60.6567 73.4313V132.986C60.6567 133.483 60.8635 133.781 61.1942 133.781C61.401 133.781 61.6077 133.632 61.8144 133.533L80.4615 121.214Z" fill="var(--fill-0, #FF0000)" fill-opacity="0.57"/>
<path d="M87.1183 122.009L105.062 134.178C105.683 134.576 106.303 134.923 106.882 135.321V73.2326L88.4413 59.7223C88.0279 59.4242 87.5317 59.1262 87.1183 58.8282V122.009Z" fill="var(--fill-0, #FF0000)" fill-opacity="0.57"/>
<path d="M113.538 136.215C114.159 135.867 114.779 135.42 115.399 134.973L131.979 123.4C132.93 122.705 133.343 121.86 133.343 120.618V61.0634C133.343 60.5667 133.137 60.2686 132.764 60.2686C132.599 60.2686 132.392 60.368 132.186 60.517L113.538 72.7359V136.215Z" fill="var(--fill-0, #FF0000)" fill-opacity="0.57"/>
</g>
<path id="5" d="M95.836 115C88.1169 115 83.328 110.664 83.0219 105.093L83 104.689H91.3314L91.3751 104.824C91.9218 106.486 93.5399 107.811 95.836 107.811C98.46 107.811 100.319 106.014 100.319 103.453V103.408C100.319 100.848 98.4382 99.1178 95.8141 99.1178C94.7208 99.1178 93.7805 99.4323 93.037 99.904C92.3591 100.353 91.8343 100.96 91.5063 101.589H83.5029L84.7712 82H106.966V89.1886H92.0311L91.55 96.5568H91.725C92.8839 94.3778 95.4424 92.8727 98.7881 92.8727C104.714 92.8727 109 97.2083 109 103.229V103.274C109 110.327 103.686 115 95.836 115Z" fill="var(--fill-0, white)"/>
<path id="Ellipse 10 (Stroke)" d="M189.591 97C189.591 45.8635 148.137 4.40909 97 4.40909C45.8635 4.40909 4.40909 45.8635 4.40909 97C4.40909 148.137 45.8635 189.591 97 189.591V194C43.4284 194 0 150.572 0 97C0 43.4284 43.4284 0 97 0C150.572 0 194 43.4284 194 97C194 150.572 150.572 194 97 194V189.591C148.137 189.591 189.591 148.137 189.591 97Z" fill="var(--fill-0, #FF4646)"/>
</g>
</svg>
