<svg preserveAspectRatio="none" width="100%" height="100%" overflow="visible" style="display: block;" viewBox="0 0 194 194" fill="none" xmlns="http://www.w3.org/2000/svg">
<g id="Group 52">
<path id="Ellipse 9" d="M180 96.5C180 142.616 142.616 180 96.5 180C50.3842 180 13 142.616 13 96.5C13 50.3842 50.3842 13 96.5 13C142.616 13 180 50.3842 180 96.5Z" fill="var(--fill-0, #2B2B2B)"/>
<g id="Vector">
<path d="M58.6721 143.083C55.6952 143.083 54 141.018 54 137.38V71.2544C54 67.9605 55.1163 65.6006 57.5558 63.929L79.0558 49.3766C80.3375 48.4916 81.826 48 83.3144 48C84.7615 48 86.2087 48.4916 87.4904 49.3766L109.941 65.7481L131.855 51.2448C133.219 50.3599 134.294 49.9665 135.328 49.9665C138.305 49.9665 140 51.9823 140 55.6204V121.844C140 125.138 138.884 127.498 136.403 129.12L114.779 143.722C113.538 144.558 112.091 145 110.644 145C109.114 145 107.502 144.508 106.013 143.525L83.149 128.284L62.1038 141.755C60.7808 142.64 59.7058 143.083 58.6721 143.083ZM80.4615 120.467V57.6853C79.9654 58.0294 79.5106 58.3244 78.9731 58.6685L62.0212 70.4678C61.0288 71.1561 60.6567 71.9919 60.6567 73.1718V132.119C60.6567 132.611 60.8635 132.906 61.1942 132.906C61.401 132.906 61.6077 132.758 61.8144 132.66L80.4615 120.467ZM87.1183 121.254L105.062 133.299C105.683 133.692 106.303 134.036 106.882 134.43V72.9752L88.4413 59.6026C88.0279 59.3077 87.5317 59.0127 87.1183 58.7177V121.254ZM113.538 135.315C114.159 134.971 114.779 134.528 115.399 134.086L131.979 122.631C132.93 121.942 133.343 121.106 133.343 119.877V60.9301C133.343 60.4384 133.137 60.1434 132.764 60.1434C132.599 60.1434 132.392 60.2418 132.186 60.3893L113.538 72.4835V135.315Z" fill="var(--fill-0, #FF0000)" fill-opacity="0.57"/>
<path d="M80.4615 120.467V57.6853C79.9654 58.0294 79.5106 58.3244 78.9731 58.6685L62.0212 70.4678C61.0288 71.1561 60.6567 71.9919 60.6567 73.1718V132.119C60.6567 132.611 60.8635 132.906 61.1942 132.906C61.401 132.906 61.6077 132.758 61.8144 132.66L80.4615 120.467Z" fill="var(--fill-0, #FF0000)" fill-opacity="0.57"/>
<path d="M87.1183 121.254L105.062 133.299C105.683 133.692 106.303 134.036 106.882 134.43V72.9752L88.4413 59.6026C88.0279 59.3077 87.5317 59.0127 87.1183 58.7177V121.254Z" fill="var(--fill-0, #FF0000)" fill-opacity="0.57"/>
<path d="M113.538 135.315C114.159 134.971 114.779 134.528 115.399 134.086L131.979 122.631C132.93 121.942 133.343 121.106 133.343 119.877V60.9301C133.343 60.4384 133.137 60.1434 132.764 60.1434C132.599 60.1434 132.392 60.2418 132.186 60.3893L113.538 72.4835V135.315Z" fill="var(--fill-0, #FF0000)" fill-opacity="0.57"/>
</g>
<path id="7" d="M87.227 114L99.9622 88.501V88.3181H85V81H109V88.2952L96.827 114H87.227Z" fill="var(--fill-0, white)"/>
<path id="Ellipse 10 (Stroke)" d="M189.591 97C189.591 45.8635 148.137 4.40909 97 4.40909C45.8635 4.40909 4.40909 45.8635 4.40909 97C4.40909 148.137 45.8635 189.591 97 189.591V194C43.4284 194 0 150.572 0 97C0 43.4284 43.4284 0 97 0C150.572 0 194 43.4284 194 97C194 150.572 150.572 194 97 194V189.591C148.137 189.591 189.591 148.137 189.591 97Z" fill="var(--fill-0, #FF4646)"/>
</g>
</svg>
