<svg preserveAspectRatio="none" width="100%" height="100%" overflow="visible" style="display: block;" viewBox="0 0 194 194" fill="none" xmlns="http://www.w3.org/2000/svg">
<g id="Group 53">
<path id="Ellipse 9" d="M180 97.5C180 143.616 142.616 181 96.5 181C50.3842 181 13 143.616 13 97.5C13 51.3842 50.3842 14 96.5 14C142.616 14 180 51.3842 180 97.5Z" fill="var(--fill-0, #2B2B2B)"/>
<g id="Vector">
<path d="M58.6721 144.063C55.6952 144.063 54 141.977 54 138.301V71.4942C54 68.1662 55.1163 65.7821 57.5558 64.0933L79.0558 49.3908C80.3375 48.4967 81.826 48 83.3144 48C84.7615 48 86.2087 48.4967 87.4904 49.3908L109.941 65.9311L131.855 51.2783C133.219 50.3842 134.294 49.9868 135.328 49.9868C138.305 49.9868 140 52.0233 140 55.6989V122.605C140 125.933 138.884 128.317 136.403 129.956L114.779 144.709C113.538 145.553 112.091 146 110.644 146C109.114 146 107.502 145.503 106.013 144.51L83.149 129.112L62.1038 142.722C60.7808 143.616 59.7058 144.063 58.6721 144.063ZM80.4615 121.214V57.7851C79.9654 58.1328 79.5106 58.4308 78.9731 58.7785L62.0212 70.6994C61.0288 71.3948 60.6567 72.2392 60.6567 73.4313V132.986C60.6567 133.483 60.8635 133.781 61.1942 133.781C61.401 133.781 61.6077 133.632 61.8144 133.533L80.4615 121.214ZM87.1183 122.009L105.062 134.178C105.683 134.576 106.303 134.923 106.882 135.321V73.2326L88.4413 59.7223C88.0279 59.4242 87.5317 59.1262 87.1183 58.8282V122.009ZM113.538 136.215C114.159 135.867 114.779 135.42 115.399 134.973L131.979 123.4C132.93 122.705 133.343 121.86 133.343 120.618V61.0634C133.343 60.5667 133.137 60.2686 132.764 60.2686C132.599 60.2686 132.392 60.368 132.186 60.517L113.538 72.7359V136.215Z" fill="var(--fill-0, #A5A5A5)" fill-opacity="0.2"/>
<path d="M80.4615 121.214V57.7851C79.9654 58.1328 79.5106 58.4308 78.9731 58.7785L62.0212 70.6994C61.0288 71.3948 60.6567 72.2392 60.6567 73.4313V132.986C60.6567 133.483 60.8635 133.781 61.1942 133.781C61.401 133.781 61.6077 133.632 61.8144 133.533L80.4615 121.214Z" fill="var(--fill-0, #A5A5A5)" fill-opacity="0.2"/>
<path d="M87.1183 122.009L105.062 134.178C105.683 134.576 106.303 134.923 106.882 135.321V73.2326L88.4413 59.7223C88.0279 59.4242 87.5317 59.1262 87.1183 58.8282V122.009Z" fill="var(--fill-0, #A5A5A5)" fill-opacity="0.2"/>
<path d="M113.538 136.215C114.159 135.867 114.779 135.42 115.399 134.973L131.979 123.4C132.93 122.705 133.343 121.86 133.343 120.618V61.0634C133.343 60.5667 133.137 60.2686 132.764 60.2686C132.599 60.2686 132.392 60.368 132.186 60.517L113.538 72.7359V136.215Z" fill="var(--fill-0, #A5A5A5)" fill-opacity="0.2"/>
</g>
<path id="8" d="M98 116C89.6307 116 84 112.134 84 106.357V106.312C84 101.877 87.3521 98.9431 91.7778 98.2154V98.0334C87.9437 97.2602 85.1612 94.5084 85.1612 90.9378V90.8923C85.1612 85.7298 90.3318 82 98 82C105.668 82 110.839 85.7298 110.839 90.8923V90.9378C110.839 94.5084 108.056 97.2602 104.222 98.0334V98.2154C108.648 98.9431 112 101.877 112 106.312V106.357C112 112.134 106.369 116 98 116ZM98 95.4181C100.147 95.4181 101.681 93.9853 101.681 91.893V91.8475C101.681 89.7779 100.103 88.3906 98 88.3906C95.8967 88.3906 94.3192 89.7779 94.3192 91.8475V91.893C94.3192 93.9853 95.8529 95.4181 98 95.4181ZM98 109.587C100.541 109.587 102.294 107.949 102.294 105.698V105.652C102.294 103.423 100.585 101.786 98 101.786C95.4147 101.786 93.7058 103.423 93.7058 105.652V105.698C93.7058 107.949 95.4585 109.587 98 109.587Z" fill="var(--fill-0, #DEDEDE)"/>
<path id="Ellipse 10 (Stroke)" d="M189.591 97C189.591 45.8635 148.137 4.40909 97 4.40909C45.8635 4.40909 4.40909 45.8635 4.40909 97C4.40909 148.137 45.8635 189.591 97 189.591V194C43.4284 194 0 150.572 0 97C0 43.4284 43.4284 0 97 0C150.572 0 194 43.4284 194 97C194 150.572 150.572 194 97 194V189.591C148.137 189.591 189.591 148.137 189.591 97Z" fill="var(--fill-0, white)"/>
</g>
</svg>
