<svg preserveAspectRatio="none" width="100%" height="100%" overflow="visible" style="display: block;" viewBox="0 0 93 93" fill="none" xmlns="http://www.w3.org/2000/svg">
<g id="Group 58">
<path id="Ellipse 14" d="M93 46.5C93 72.1812 72.1812 93 46.5 93C20.8188 93 0 72.1812 0 46.5C0 20.8188 20.8188 0 46.5 0C72.1812 0 93 20.8188 93 46.5Z" fill="var(--fill-0, #2B2B2B)"/>
<g id="500">
<path id="Vector" d="M66.2545 60.3699C60.6729 60.3699 57.0678 56.472 57.0678 50.4513C57.0678 40.313 62.2102 33.0845 69.4387 33.0845C75.0385 33.0845 78.6619 36.9824 78.6619 43.0215C78.6619 53.2146 73.5379 60.3699 66.2545 60.3699ZM61.8808 50.3598C61.8808 54.1479 63.6193 56.4354 66.4558 56.4354C70.555 56.4354 73.8307 50.5062 73.8307 43.0947C73.8307 39.3248 72.0922 37.0373 69.274 37.0373C65.1748 37.0373 61.8808 43.0032 61.8808 50.3598Z" fill="var(--fill-0, white)"/>
<path id="Vector_2" d="M44.3923 60.3699C38.8108 60.3699 35.2057 56.472 35.2057 50.4513C35.2057 40.313 40.348 33.0845 47.5765 33.0845C53.1763 33.0845 56.7998 36.9824 56.7998 43.0215C56.7998 53.2146 51.6757 60.3699 44.3923 60.3699ZM40.0186 50.3598C40.0186 54.1479 41.7571 56.4354 44.5936 56.4354C48.6928 56.4354 51.9685 50.5062 51.9685 43.0947C51.9685 39.3248 50.23 37.0373 47.4118 37.0373C43.3126 37.0373 40.0186 43.0032 40.0186 50.3598Z" fill="var(--fill-0, white)"/>
<path id="Vector_3" d="M24.0675 60.3698C18.4494 60.3332 14.6247 56.8745 14.5881 52.3544C14.5881 52.2263 14.5881 52.1348 14.5881 52.0616H19.0167C19.2363 54.6419 21.3774 56.3987 24.3054 56.3987C27.453 56.3987 29.7954 54.1295 29.7954 50.8904C29.7954 47.9807 27.8373 46.0408 24.9642 46.0408C23.1525 46.0408 21.231 46.7546 20.1879 48.2003H15.6495L20.1513 33.5236H36.0723L35.2305 37.4947H23.1525L20.8467 44.6866H20.9565C22.1826 43.2958 24.2322 42.5089 26.5929 42.5089C31.0032 42.5089 34.2972 45.5467 34.3338 50.5244C34.3704 56.2706 30.015 60.4247 24.0675 60.3698Z" fill="var(--fill-0, white)"/>
</g>
</g>
</svg>
