<svg preserveAspectRatio="none" width="100%" height="100%" overflow="visible" style="display: block;" viewBox="0 0 42 52" fill="none" xmlns="http://www.w3.org/2000/svg">
<path id="&#244;&#129;&#143;&#139;" d="M21.0028 52C12.9842 52 6.51185 45.3058 6.51185 37.0352C6.51185 34.1107 7.30709 31.3919 8.69875 29.1072L0.282517 12.7715C-0.1151 12.0176 -0.0930098 11.1494 0.348787 10.4411L6.35722 0.959578C6.79902 0.297012 7.35127 0 8.23486 0H33.7707C34.6322 0 35.1845 0.297012 35.6483 0.959578L41.6347 10.4411C42.0986 11.1494 42.1207 12.0176 41.701 12.7715L33.2847 29.1072C34.6764 31.3919 35.4716 34.1107 35.4716 37.0352C35.4716 45.3058 28.9993 52 21.0028 52ZM9.36144 3.44991L13.0284 10.4868H28.9772L32.622 3.44991H9.36144ZM3.66226 11.5149L10.9298 26.2513C12.2773 24.9033 13.8899 23.8067 15.657 23.0756L7.21873 5.8717L3.66226 11.5149ZM34.7648 5.8717L26.3264 23.0756C28.1157 23.8067 29.7062 24.9033 31.0757 26.2513L38.3433 11.5149L34.7648 5.8717ZM21.0028 22.0475C21.6434 22.0475 22.284 22.0931 22.9025 22.1617L27.1879 13.9367H14.8176L19.081 22.1617C19.6995 22.0931 20.3401 22.0475 21.0028 22.0475ZM21.0028 48.5501C27.1658 48.5501 32.1361 43.3866 32.1361 37.0352C32.1361 30.638 27.1438 25.4974 21.0028 25.4974C14.8176 25.4974 9.84742 30.6608 9.84742 37.0352C9.84742 43.4095 14.8397 48.5501 21.0028 48.5501ZM17.115 44.2548C16.2976 44.8717 15.4582 44.232 15.7675 43.2724L17.3138 38.4974L13.3818 35.5958C12.6086 35.0246 12.8516 33.9508 13.8678 33.9508L18.7054 33.9965L20.1855 29.1986C20.4726 28.239 21.5329 28.239 21.8201 29.1986L23.3001 33.9965L28.1378 33.9508C29.176 33.9508 29.3748 35.0475 28.6459 35.5729L24.6918 38.4974L26.2602 43.2724C26.5694 44.232 25.73 44.8717 24.8906 44.2548L21.0249 41.3076L17.115 44.2548Z" fill="var(--fill-0, #FFC800)"/>
</svg>
