<svg preserveAspectRatio="none" width="100%" height="100%" overflow="visible" style="display: block;" viewBox="0 0 48 35" fill="none" xmlns="http://www.w3.org/2000/svg">
<path id="&#244;&#128;&#136;&#172;" d="M6.39186 35C2.1374 35 0 32.8881 0 28.6438V17.3257C0 15.4804 0.305343 14.6192 1.16031 13.43L8.20356 3.85472C10.4224 0.799649 11.6234 0 15.2468 0H32.7532C36.3766 0 37.598 0.799649 39.8168 3.85472L46.8397 13.43C47.715 14.6192 48 15.4804 48 17.3257V28.6438C48 32.8676 45.8829 35 41.6081 35H6.39186ZM24 23.1283C27.0738 23.1283 29.028 20.4628 29.028 17.9408V17.8793C29.028 16.9566 29.5573 16.0955 30.6972 16.0955H43.6641C44.3359 16.0955 44.458 15.5214 44.1527 15.0703L36.6209 4.65436C35.6845 3.34212 34.4835 2.87053 32.9975 2.87053H15.0025C13.5165 2.87053 12.3155 3.34212 11.3791 4.65436L3.84733 15.0703C3.52163 15.5214 3.66412 16.0955 4.33588 16.0955H17.3028C18.4427 16.0955 18.9924 16.9566 18.9924 17.8793V17.9408C18.9924 20.4628 20.9466 23.1283 24 23.1283ZM15.4504 7.68893C14.9008 7.68893 14.4733 7.25835 14.4733 6.68424C14.4733 6.15114 14.9008 5.72056 15.4504 5.72056H32.5496C33.0992 5.72056 33.5267 6.15114 33.5267 6.68424C33.5267 7.25835 33.0992 7.68893 32.5496 7.68893H15.4504ZM12.743 12.4253C12.173 12.4253 11.7252 11.9742 11.7252 11.4206C11.7252 10.867 12.173 10.3544 12.743 10.3544H35.257C35.827 10.3544 36.2748 10.867 36.2748 11.4206C36.2748 11.9742 35.827 12.4253 35.257 12.4253H12.743Z" fill="var(--fill-0, white)"/>
</svg>
