<svg preserveAspectRatio="none" width="100%" height="100%" overflow="visible" style="display: block;" viewBox="0 0 46 46" fill="none" xmlns="http://www.w3.org/2000/svg">
<path id="&#244;&#128;&#139;&#133;" d="M23 46C10.3049 46 0 35.6951 0 23C0 10.3049 10.3049 0 23 0C35.6951 0 46 10.3049 46 23C46 35.6951 35.6951 46 23 46ZM23 42.1667C33.598 42.1667 42.1667 33.598 42.1667 23C42.1667 12.402 33.598 3.83333 23 3.83333C12.402 3.83333 3.83333 12.402 3.83333 23C3.83333 33.598 12.402 42.1667 23 42.1667ZM16.5059 34.6353C15.198 35.6275 13.8 34.5902 14.3186 33.0569L16.8667 25.4127L10.3275 20.7451C9.1098 19.8431 9.51569 18.1069 11.1618 18.1294L19.1892 18.1971L21.6471 10.5078C22.1206 9.01961 23.8343 9.01961 24.3078 10.5078L26.7657 18.1971L34.7931 18.1294C36.4618 18.1069 36.8226 19.8657 35.6275 20.7451L29.0882 25.4127L31.6588 33.0569C32.1549 34.5902 30.7794 35.6275 29.449 34.6353L22.9775 29.8775L16.5059 34.6353Z" fill="var(--fill-0, white)"/>
</svg>
