<svg preserveAspectRatio="none" width="100%" height="100%" overflow="visible" style="display: block;" viewBox="0 0 46 46" fill="none" xmlns="http://www.w3.org/2000/svg">
<path id="&#244;&#128;&#162;&#184;" d="M23 46C10.3049 46 0 35.6951 0 23C0 10.3049 10.3049 0 23 0C35.6951 0 46 10.3049 46 23C46 35.6951 35.6951 46 23 46ZM3.83333 23C3.83333 24.7588 4.08137 26.4726 4.5098 28.0961L12.8755 25.3902C12.6951 24.6235 12.6049 23.8118 12.6049 23C12.6049 17.25 17.25 12.6049 23 12.6049C23.7892 12.6049 24.5559 12.6951 25.3 12.8529L28.0059 4.48726C26.4049 4.05882 24.7363 3.83333 23 3.83333C12.402 3.83333 3.83333 12.402 3.83333 23ZM27.149 13.4618C28.5922 14.0931 29.8775 15.0402 30.8922 16.2127L37.95 10.9814C35.8529 8.36569 33.0569 6.31373 29.8775 5.09608L27.149 13.4618ZM31.9971 17.7912C32.2451 18.2196 32.448 18.648 32.6284 19.099L40.9941 16.3706C40.498 15.0176 39.8667 13.7549 39.0775 12.5598L31.9971 17.7912ZM23 31.0726C27.4647 31.0726 31.0726 27.4422 31.0726 23C31.0726 18.5353 27.4647 14.9275 23 14.9275C18.5578 14.9275 14.9275 18.5353 14.9275 23C14.9275 27.4422 18.5578 31.0726 23 31.0726ZM23 28.4794C19.9559 28.4794 17.5206 26.0216 17.5206 23C17.5206 19.9559 19.9559 17.5206 23 17.5206C26.0441 17.5206 28.4794 19.9559 28.4794 23C28.4794 26.0216 26.0441 28.4794 23 28.4794ZM23 42.1667C33.598 42.1667 42.1667 33.598 42.1667 23C42.1667 21.3539 41.9637 19.7529 41.5804 18.2196L33.1922 20.9255C33.3275 21.602 33.3951 22.2784 33.3951 23C33.3951 28.75 28.75 33.3951 23 33.3951C22.2559 33.3951 21.5343 33.3049 20.8353 33.1696L18.1069 41.5353C19.6853 41.9412 21.3088 42.1667 23 42.1667ZM23 25.9539C24.6461 25.9539 25.9539 24.6235 25.9539 23C25.9539 21.3539 24.6461 20.0461 23 20.0461C21.3539 20.0461 20.0461 21.3539 20.0461 23C20.0461 24.6235 21.3539 25.9539 23 25.9539ZM5.14118 29.9451C5.63726 31.2755 6.29118 32.5157 7.08039 33.6657L14.1382 28.4569C13.9127 28.051 13.6873 27.6451 13.5069 27.2167L5.14118 29.9451ZM8.25294 35.2441C10.35 37.7922 13.101 39.7765 16.2578 40.949L18.9863 32.5833C17.5882 31.9971 16.348 31.1176 15.3333 30.0127L8.25294 35.2441Z" fill="var(--fill-0, white)"/>
</svg>
