<svg preserveAspectRatio="none" width="100%" height="100%" overflow="visible" style="display: block;" viewBox="0 0 408 222" fill="none" xmlns="http://www.w3.org/2000/svg">
<path id="Vector 15 (Stroke)" d="M102.452 0C102.453 0.00248661 102.453 0.0459228 102.46 0.791686L102.454 0H408V4.41791H102.439C102.397 4.41864 102.33 4.41994 102.241 4.42222C102.064 4.4268 101.795 4.43695 101.44 4.45243C100.73 4.48343 99.6771 4.54098 98.3321 4.65304C95.6415 4.87724 91.7829 5.31278 87.148 6.15876C77.8683 7.85251 65.5303 11.1809 53.2282 17.704C40.9359 24.2221 28.7083 33.914 19.5706 48.3382C10.4392 62.7523 4.30974 82.0221 4.39989 107.833V107.84C4.39989 135.715 10.5901 156.415 19.7574 171.809C28.926 187.205 41.1478 197.417 53.4001 204.201C65.6656 210.993 77.9534 214.345 87.1909 215.994C91.805 216.818 95.6451 217.214 98.3214 217.405C99.6589 217.501 100.705 217.545 101.41 217.565C101.763 217.575 102.031 217.58 102.207 217.582H196.852V222H102.166C101.963 221.998 101.667 221.991 101.285 221.981C100.522 221.959 99.4138 221.913 98.0099 221.812C95.2026 221.612 91.2082 221.198 86.422 220.343C76.8586 218.635 64.078 215.16 51.2758 208.071C38.4601 200.975 25.6139 190.251 15.9814 174.076C6.64868 158.404 0.401497 137.73 0.0203111 110.495L0.000979932 107.84C-0.090458 81.2908 6.22454 61.1758 15.859 45.9674C25.4878 30.7679 38.3514 20.596 51.1727 13.7973C63.9842 7.00401 76.7835 3.56028 86.3618 1.81203C91.1558 0.937037 95.1576 0.484502 97.9691 0.250233C99.375 0.133095 100.485 0.0721782 101.249 0.0388293C101.631 0.0221655 101.927 0.0116987 102.13 0.00647155C102.231 0.00386639 102.309 0.00309414 102.364 0.00215718C102.391 0.00169086 102.413 0.000197877 102.428 0H102.452Z" fill="var(--fill-0, #FF4646)"/>
</svg>
