<svg preserveAspectRatio="none" width="100%" height="100%" overflow="visible" style="display: block;" viewBox="0 0 584 439" fill="none" xmlns="http://www.w3.org/2000/svg">
<path id="Vector 11 (Stroke)" d="M481.324 3.00034e-09V1.68037C481.324 1.3149e-07 481.326 -1.55811e-06 481.328 3.00034e-09H481.414C481.469 0.000453774 481.549 0.00259114 481.651 0.00430866C481.854 0.00774777 482.151 0.0146719 482.533 0.0280062C483.299 0.0547105 484.411 0.105838 485.819 0.211124C488.637 0.421725 492.647 0.842255 497.452 1.68037C507.051 3.35507 519.88 6.70991 532.72 13.4387C545.571 20.1729 558.463 30.3036 568.112 45.5274C577.767 60.7612 584.093 80.9662 583.999 107.706C583.894 137.55 577.491 159.702 567.819 176.116C558.144 192.536 545.27 203.088 532.428 209.844C519.604 216.591 506.817 219.55 497.256 220.827C492.47 221.466 488.477 221.687 485.671 221.747C484.268 221.777 483.159 221.765 482.395 221.747C482.014 221.738 481.717 221.728 481.513 221.719L481.278 221.706H102.64C102.597 221.707 102.531 221.708 102.442 221.71C102.264 221.715 101.994 221.725 101.639 221.74C100.927 221.771 99.8724 221.829 98.5248 221.941C95.8289 222.165 91.9628 222.6 87.3187 223.445C78.0208 225.136 65.6587 228.46 53.3325 234.975C41.0161 241.484 28.7646 251.163 19.6089 265.568C10.4597 279.963 4.31818 299.208 4.40851 324.984V324.991C4.40851 352.829 10.6108 373.502 19.7961 388.875C28.9827 404.251 41.2284 414.449 53.5047 421.225C65.7943 428.007 78.1062 431.355 87.3618 433.002C91.9849 433.825 95.8326 434.22 98.5141 434.411C99.8542 434.507 100.902 434.551 101.609 434.571C101.962 434.581 102.231 434.586 102.407 434.588H197.238V439H102.603C102.548 439 102.468 438.999 102.366 438.998C102.163 438.996 101.866 438.991 101.484 438.981C100.719 438.959 99.6086 438.913 98.202 438.813C95.3892 438.612 91.3869 438.199 86.5913 437.345C77.0091 435.64 64.2037 432.167 51.3763 425.087C38.5356 418 25.664 407.293 16.0127 391.139C6.6617 375.489 0.402299 354.842 0.0203512 327.643L0.000982194 324.991C-0.0906512 298.477 6.23675 278.389 15.89 263.201C25.5378 248.021 38.4266 237.863 51.273 231.073C64.1095 224.289 76.934 220.85 86.5311 219.104C91.3345 218.23 95.344 217.778 98.1611 217.544C99.5698 217.427 100.682 217.364 101.447 217.331C101.83 217.314 102.126 217.306 102.33 217.3C102.431 217.298 102.51 217.297 102.564 217.296C102.591 217.296 102.614 217.294 102.629 217.294H102.653C102.654 217.297 102.654 217.344 102.661 218.085L102.655 217.294H481.393L481.461 217.298C481.463 217.298 481.466 217.298 481.47 217.298C481.479 217.299 481.495 217.299 481.515 217.3C481.556 217.303 481.62 217.307 481.707 217.311C481.882 217.319 482.148 217.329 482.499 217.337C483.201 217.354 484.243 217.363 485.576 217.335C488.243 217.278 492.072 217.068 496.673 216.454C505.884 215.223 518.138 212.378 530.379 205.939C542.602 199.508 554.821 189.492 564.023 173.876C573.228 158.254 579.489 136.902 579.591 107.69C579.683 81.6847 573.54 62.3284 564.391 47.8928C555.236 33.4482 542.988 23.7986 530.676 17.3466C518.353 10.8891 505.993 7.64974 496.696 6.0278C492.053 5.21779 488.188 4.81389 485.492 4.61241C484.145 4.51171 483.09 4.46057 482.378 4.43576C482.023 4.42338 481.753 4.41722 481.575 4.41421C481.487 4.41272 481.42 4.41241 481.377 4.41206H388.966V3.00034e-09H481.324Z" fill="var(--fill-0, #FF4646)"/>
</svg>
