<svg preserveAspectRatio="none" width="100%" height="100%" overflow="visible" style="display: block;" viewBox="0 0 584 439" fill="none" xmlns="http://www.w3.org/2000/svg">
<path id="Vector 7 (Stroke)" d="M82.3188 431.99C88.31 433.329 93.4212 433.978 97.0243 434.293C98.825 434.45 100.247 434.524 101.212 434.558C101.694 434.575 102.062 434.583 102.306 434.586C102.427 434.587 102.518 434.588 102.577 434.588H126.315V439H102.57C102.496 439 102.39 439 102.252 438.998C101.976 438.994 101.573 438.986 101.055 438.968C100.021 438.931 98.5228 438.854 96.6413 438.69C92.8777 438.361 87.5691 437.685 81.3568 436.296L82.3188 431.99ZM197.238 434.588V439H173.597V434.588H197.238ZM17.6819 385.146C24.9584 398.718 34.5435 408.551 44.6523 415.688L42.1107 419.294C31.502 411.804 21.4322 401.469 13.7994 387.234L17.6819 385.146ZM4.40756 324.991C4.40756 332.422 4.84884 339.341 5.67085 345.784L3.48645 346.065L1.29988 346.342C0.452834 339.703 0 332.597 0 324.991H4.40756ZM502.842 219.937C496.546 221.101 491.16 221.545 487.338 221.695C485.427 221.771 483.903 221.772 482.851 221.756C482.325 221.747 481.916 221.735 481.635 221.723C481.496 221.718 481.388 221.712 481.312 221.708C481.297 221.707 481.282 221.707 481.269 221.706H463.194V217.294H481.394L481.463 217.298H481.476C481.489 217.299 481.511 217.301 481.541 217.303C481.599 217.306 481.691 217.311 481.814 217.316C482.06 217.325 482.434 217.338 482.922 217.346C483.9 217.361 485.341 217.359 487.164 217.288C490.813 217.144 495.986 216.718 502.042 215.599L502.842 219.937ZM426.93 217.294V221.706H408.801V217.294H426.93ZM570.802 170.661C563.315 185.454 553.343 196.003 542.766 203.506L540.218 199.906C550.251 192.789 559.729 182.776 566.87 168.667L570.802 170.661ZM582.667 86.9658C583.559 93.4021 584.025 100.305 583.999 107.706C583.972 115.371 583.529 122.53 582.723 129.214L578.347 128.684C579.132 122.182 579.565 115.196 579.591 107.69C579.617 100.485 579.162 93.7908 578.3 87.5734L582.667 86.9658ZM540.466 17.9348C551.224 24.8381 561.535 34.4092 569.423 47.6602L565.637 49.92C558.148 37.3393 548.355 28.2386 538.085 21.6488L540.466 17.9348ZM481.323 0H481.442C481.513 0.000681116 481.616 0.00171344 481.749 0.00430865C482.015 0.00950248 482.403 0.0206944 482.903 0.0409322C483.902 0.0814399 485.351 0.163089 487.173 0.323149C490.815 0.643245 495.957 1.28151 501.994 2.55719L501.084 6.87446C495.247 5.64109 490.282 5.02523 486.785 4.71797C485.038 4.56447 483.66 4.4866 482.724 4.44868C482.257 4.42974 481.9 4.42098 481.663 4.41637C481.546 4.41408 481.457 4.41261 481.401 4.41206H458.235V0H481.323ZM412.055 0V4.41206H388.967V0H412.055Z" fill="var(--fill-0, white)"/>
</svg>
