<svg preserveAspectRatio="none" width="100%" height="100%" overflow="visible" style="display: block;" viewBox="0 0 584 440" fill="none" xmlns="http://www.w3.org/2000/svg">
<path id="Vector 10 (Stroke)" d="M82.3194 432.974C88.3103 434.316 93.4216 434.967 97.0248 435.282C98.8253 435.44 100.248 435.513 101.213 435.548C101.695 435.565 102.065 435.573 102.308 435.576C102.429 435.577 102.519 435.578 102.577 435.578H126.315V440H102.571C102.497 440 102.39 440 102.252 439.998C101.976 439.994 101.575 439.986 101.058 439.968C100.023 439.931 98.5242 439.854 96.6417 439.689C92.8783 439.36 87.5714 438.682 81.3595 437.29L82.3194 432.974ZM197.238 435.578V440H173.597V435.578H197.238ZM17.6849 386.023C24.9612 399.626 34.5446 409.482 44.6531 416.635L42.1136 420.249C31.5047 412.742 21.4332 402.384 13.8003 388.116L15.7416 387.069L17.6849 386.023ZM5.717 305.601C4.84336 311.821 4.38332 318.518 4.40851 325.725V325.731C4.40851 333.179 4.85194 340.114 5.67396 346.572L1.30086 347.131C0.559689 341.309 0.120641 335.127 0.022503 328.566L0.00098188 325.731C-0.0245413 318.329 0.448095 311.425 1.35251 304.985L5.717 305.601ZM46.0799 239.751C35.8078 246.364 26.0033 255.459 18.492 267.982L14.715 265.702C22.6259 252.513 32.9469 242.953 43.6997 236.03L46.0799 239.751ZM121.606 217.789V222.211H102.618C102.561 222.212 102.473 222.214 102.356 222.218C102.12 222.224 101.765 222.238 101.299 222.261C100.366 222.307 98.9896 222.393 97.2465 222.561C93.7585 222.896 88.8048 223.551 82.9801 224.824L82.0418 220.503C88.064 219.187 93.1926 218.51 96.8246 218.16C98.6408 217.986 100.085 217.892 101.082 217.843C101.58 217.818 101.968 217.805 102.233 217.798C102.365 217.794 102.468 217.792 102.539 217.791C102.574 217.79 102.601 217.789 102.62 217.789H121.606ZM502.841 220.438C496.544 221.605 491.158 222.049 487.337 222.2C485.426 222.276 483.904 222.277 482.852 222.261C482.326 222.252 481.917 222.24 481.636 222.228C481.495 222.223 481.386 222.217 481.311 222.213C481.295 222.212 481.281 222.212 481.268 222.211H462.392V217.789H481.393L481.461 217.793C481.464 217.793 481.47 217.793 481.476 217.793C481.489 217.794 481.51 217.796 481.539 217.798C481.598 217.801 481.689 217.806 481.812 217.811C482.059 217.821 482.432 217.833 482.921 217.841C483.898 217.856 485.339 217.854 487.162 217.782C490.811 217.638 495.985 217.212 502.04 216.09L502.841 220.438ZM197.337 217.789V222.211H159.473V217.789H197.337ZM273.068 217.789V222.211H235.201V217.789H273.068ZM348.796 217.789V222.211H310.932V217.789H348.796ZM424.527 217.789V222.211H386.661V217.789H424.527ZM570.8 171.05C563.313 185.876 553.341 196.45 542.764 203.97L540.216 200.362C550.25 193.228 559.729 183.192 566.87 169.051L570.8 171.05ZM582.665 87.1639C583.557 93.6148 584.025 100.534 583.999 107.951C583.972 115.634 583.529 122.809 582.723 129.509L578.348 128.978C579.132 122.46 579.565 115.458 579.591 107.936C579.617 100.714 579.162 94.0044 578.3 87.7728L582.665 87.1639ZM540.464 17.9756C551.222 24.8948 561.535 34.4872 569.423 47.7687L567.529 48.9002L565.637 50.0338C558.148 37.4244 548.355 28.303 538.086 21.6981L540.464 17.9756ZM481.442 0C481.513 0.000684184 481.615 0.00173295 481.748 0.00431847C482.014 0.00951954 482.402 0.0207367 482.901 0.0410254C483.9 0.0816166 485.349 0.163424 487.171 0.323885C490.813 0.644695 495.957 1.2842 501.995 2.56301L501.084 6.89011C495.247 5.65387 490.282 5.03669 486.786 4.72872C485.038 4.5748 483.658 4.49682 482.723 4.45882C482.255 4.43984 481.898 4.43105 481.662 4.42643C481.544 4.42413 481.456 4.42265 481.399 4.42211H465.232V0H481.442ZM368.68 0V4.42211H352.588V0H368.68ZM433.047 0V4.42211H400.863V0H433.047Z" fill="var(--fill-0, white)"/>
</svg>
