<svg preserveAspectRatio="none" width="100%" height="100%" overflow="visible" style="display: block;" viewBox="0 0 196 115" fill="none" xmlns="http://www.w3.org/2000/svg">
<path id="Vector 14 (Stroke)" d="M4.37989 0C4.37989 28.0803 10.5411 48.9326 19.6689 64.4396C28.7977 79.9486 40.9668 90.2357 53.166 97.0702C65.3788 103.912 77.6152 107.288 86.8129 108.95C91.4068 109.78 95.2306 110.179 97.8952 110.371C99.2267 110.468 100.268 110.512 100.971 110.532C101.321 110.542 101.587 110.546 101.762 110.547C101.849 110.548 101.915 110.55 101.956 110.55H196V115H101.956C101.902 115 101.824 114.999 101.723 114.998C101.521 114.996 101.226 114.991 100.846 114.98C100.086 114.959 98.981 114.912 97.583 114.811C94.7877 114.609 90.8104 114.192 86.0451 113.331C76.5231 111.611 63.7996 108.107 51.0531 100.966C38.2929 93.8178 25.5021 83.0171 15.9113 66.7235C6.31922 50.4275 0 28.7617 0 0H4.37989Z" fill="var(--fill-0, #FF4646)"/>
</svg>
