<svg preserveAspectRatio="none" width="100%" height="100%" overflow="visible" style="display: block;" viewBox="0 0 41 40" fill="none" xmlns="http://www.w3.org/2000/svg">
<path id="&#244;&#128;&#159;&#178;" d="M5.39945 40C4.39126 40 3.5847 39.1818 3.5847 38.25V31.5227C1.50109 30.7727 0 28.75 0 26.3864C0 24.0227 1.50109 22 3.5847 21.2273V1.84091C3.5847 0.818182 4.39126 0 5.39945 0C6.40765 0 7.1918 0.818182 7.1918 1.84091V21.25C9.27541 22 10.7765 24.0227 10.7765 26.3864C10.7765 28.75 9.27541 30.7727 7.1918 31.5227V38.25C7.1918 39.1818 6.40765 40 5.39945 40ZM20.5 40C19.4918 40 18.7077 39.1818 18.7077 38.1591V18.3864C16.6016 17.6364 15.1005 15.6136 15.1005 13.25C15.1005 10.8864 16.6016 8.86364 18.7077 8.09091V1.75C18.7077 0.818182 19.4918 0 20.5 0C21.5082 0 22.3148 0.818182 22.3148 1.75V8.11364C24.376 8.86364 25.877 10.8864 25.877 13.25C25.877 15.6136 24.376 17.6364 22.3148 18.3864V38.1591C22.3148 39.1818 21.5082 40 20.5 40ZM30.2459 26.3864C30.2459 24.0227 31.7246 22 33.8082 21.25V1.84091C33.8082 0.818182 34.6148 0 35.623 0C36.6311 0 37.4153 0.818182 37.4153 1.84091V21.2273C39.4989 21.9773 41 24.0227 41 26.3864C41 28.75 39.4989 30.7727 37.4153 31.5227V38.25C37.4153 39.1818 36.6311 40 35.623 40C34.6148 40 33.8082 39.1818 33.8082 38.25V31.5227C31.7246 30.7727 30.2459 28.75 30.2459 26.3864ZM20.5 15.9091C21.9787 15.9091 23.1213 14.75 23.1213 13.25C23.1213 11.7727 21.9787 10.5909 20.5 10.5909C19.0437 10.5909 17.8787 11.7727 17.8787 13.25C17.8787 14.75 19.0437 15.9091 20.5 15.9091ZM5.39945 29.0455C6.87814 29.0455 8.02076 27.8864 8.02076 26.3864C8.02076 24.9091 6.87814 23.7273 5.39945 23.7273C3.94317 23.7273 2.77814 24.9091 2.77814 26.3864C2.77814 27.8864 3.94317 29.0455 5.39945 29.0455ZM35.623 29.0455C37.1016 29.0455 38.2443 27.8864 38.2443 26.3864C38.2443 24.9091 37.1016 23.7273 35.623 23.7273C34.1667 23.7273 33.0016 24.9091 33.0016 26.3864C33.0016 27.8864 34.1667 29.0455 35.623 29.0455Z" fill="var(--fill-0, white)"/>
</svg>
