<svg preserveAspectRatio="none" width="100%" height="100%" overflow="visible" style="display: block;" viewBox="0 0 52 52" fill="none" xmlns="http://www.w3.org/2000/svg">
<path id="&#244;&#128;&#135;&#186;" d="M12.1341 45.8455C8.03502 45.8455 6.13432 43.9456 6.13432 39.8483V34.9041C6.13432 34.4235 6.01982 34.103 5.67633 33.7368L2.17264 30.2117C-0.712751 27.3276 -0.735651 24.6724 2.17264 21.7654L5.67633 18.2403C6.01982 17.897 6.13432 17.5537 6.13432 17.0959V12.1288C6.13432 8.00859 8.03502 6.13162 12.1341 6.13162H17.0805C17.5614 6.13162 17.9049 6.01717 18.2484 5.67383L21.775 2.17168C24.6604 -0.712438 27.3396 -0.735327 30.225 2.17168L33.7516 5.67383C34.0951 6.01717 34.4386 6.13162 34.9195 6.13162H39.8659C43.9879 6.13162 45.8657 8.05437 45.8657 12.1288V17.0959C45.8657 17.5537 46.0031 17.897 46.3466 18.2403L49.8274 21.7654C52.7128 24.6724 52.7357 27.3276 49.8274 30.2117L46.3466 33.7368C46.0031 34.103 45.8657 34.4235 45.8657 34.9041V39.8483C45.8657 43.9685 43.965 45.8455 39.8659 45.8455H34.9195C34.4386 45.8455 34.0951 45.9828 33.7516 46.3262L30.225 49.8283C27.3396 52.7124 24.6604 52.7353 21.775 49.8283L18.2484 46.3262C17.9049 45.9828 17.5614 45.8455 17.0805 45.8455H12.1341ZM12.1341 42.206H18.2942C19.0041 42.206 19.5308 42.412 20.0346 42.9385L24.3398 47.2647C25.8054 48.7067 26.2176 48.7067 27.6602 47.2647L31.9883 42.9385C32.4692 42.412 33.0188 42.206 33.7058 42.206H39.8659C41.904 42.206 42.2246 41.8855 42.2246 39.8483V33.691C42.2246 33.0043 42.4536 32.4778 42.9574 31.9742L47.2855 27.671C48.7282 26.206 48.7282 25.794 47.2855 24.329L42.9574 20.0258C42.4536 19.5222 42.2246 18.9957 42.2246 18.2861V12.1288C42.2246 10.0916 41.904 9.77111 39.8659 9.77111H33.7058C33.0188 9.77111 32.4692 9.58799 31.9883 9.06152L27.6602 4.73534C26.2176 3.29328 25.8054 3.29328 24.3398 4.73534L20.0346 9.06152C19.5308 9.58799 19.0041 9.77111 18.2942 9.77111H12.1341C10.0731 9.77111 9.77541 10.0687 9.77541 12.1288V18.2861C9.77541 18.9957 9.56931 19.5222 9.06551 20.0258L4.73743 24.329C3.29473 25.794 3.29473 26.206 4.73743 27.671L9.06551 31.9742C9.56931 32.4778 9.77541 33.0043 9.77541 33.691V39.8483C9.77541 41.8855 10.096 42.206 12.1341 42.206ZM23.5154 36.8498C22.7597 36.8498 22.1414 36.5522 21.5689 35.7968L15.9813 28.9299C15.6607 28.495 15.4546 27.9914 15.4546 27.5107C15.4546 26.4807 16.2332 25.6795 17.2408 25.6795C17.8591 25.6795 18.3629 25.8856 18.9125 26.618L23.4238 32.4549L32.9272 17.2103C33.3623 16.5236 33.9348 16.1803 34.5302 16.1803C35.4691 16.1803 36.3851 16.8441 36.3851 17.8512C36.3851 18.3777 36.0874 18.8813 35.8355 19.3162L25.3703 35.7968C24.9123 36.4835 24.2711 36.8498 23.5154 36.8498Z" fill="var(--fill-0, white)"/>
</svg>
